<mxfile host="app.diagrams.net" modified="2023-11-16T08:27:46.619Z" agent="Mozilla/5.0 (Windows NT 10.0; Win64; x64; rv:109.0) Gecko/20100101 Firefox/119.0" version="22.1.2" etag="lPunnWlPPxqdiHd-F6YH" type="github">
  <diagram name="Page-1" id="B4Bf1Fxuxgxt_-W_yXtu">
    <mxGraphModel>
      <root>
        <mxCell id="0" />
        <mxCell id="1" parent="0" />
      </root>
    </mxGraphModel>
  </diagram>
</mxfile>
